<svg version="1.1" id="Layer_1" xmlns="http://www.w3.org/2000/svg" xmlns:xlink="http://www.w3.org/1999/xlink" x="0px" y="0px"
	 width="100%" viewBox="0 0 1024 1024" enable-background="new 0 0 1024 1024" xml:space="preserve">
<path fill="#000000" opacity="1.000000" stroke="none" 
	d="
M1.000000,537.000000 
	C1.000000,521.645752 1.000000,506.291534 1.000497,490.054871 
	C1.214275,487.866028 1.571913,486.564850 1.619641,485.252411 
	C2.698416,455.588318 6.959877,426.357513 13.657935,397.471130 
	C32.793892,314.944427 69.955292,241.457489 125.525688,177.577728 
	C190.415802,102.984680 270.234100,51.027645 364.988373,22.309172 
	C395.619446,13.025391 426.824768,6.576700 458.715546,3.584573 
	C468.141541,2.700184 477.571747,1.860287 487.000000,1.000001 
	C504.020905,1.000000 521.041809,1.000000 538.923157,1.108063 
	C557.869690,2.434591 575.933044,3.957317 593.834778,6.851591 
	C657.807983,17.194494 718.073669,38.218769 773.629761,71.619949 
	C881.868835,136.694992 957.086182,228.903320 998.526367,348.378204 
	C1010.724060,383.544983 1018.603638,419.700623 1022.406433,456.731171 
	C1023.372986,466.143646 1024.140869,475.576508 1025.000000,485.000000 
	C1025.000000,503.020905 1025.000000,521.041809 1024.961914,539.940918 
	C1024.729736,542.126221 1024.399048,543.429504 1024.361694,544.741150 
	C1023.812256,564.074463 1021.284058,583.201782 1017.951233,602.206665 
	C1010.818787,642.877747 998.922791,682.134705 982.240601,719.927490 
	C949.839783,793.330017 902.574768,855.573547 841.167847,907.054138 
	C793.953308,946.636536 741.109741,976.488159 682.962524,996.893250 
	C648.926941,1008.837097 614.041809,1017.211792 578.198608,1021.462341 
	C567.805359,1022.694885 557.399902,1023.823669 547.000000,1025.000000 
	C524.645752,1025.000000 502.291534,1025.000000 479.097229,1024.840332 
	C476.608002,1024.474487 474.964325,1024.189819 473.308868,1024.074341 
	C450.374390,1022.474121 427.680023,1019.162354 405.221375,1014.300842 
	C326.215485,997.198975 254.940598,963.614075 192.122864,912.752136 
	C110.510902,846.672791 54.036236,763.319824 22.953465,662.929993 
	C13.287806,631.712219 6.603137,599.852356 3.570777,567.276001 
	C2.632077,557.191589 1.852456,547.092407 1.000000,537.000000 
M954.789246,597.568176 
	C959.181152,576.181213 961.649963,554.513855 962.463989,532.755615 
	C963.353943,508.967590 962.610352,485.186920 959.858093,461.448761 
	C955.657959,425.222504 947.386353,390.022644 934.598938,355.925812 
	C916.537903,307.767456 891.329102,263.647430 857.813110,224.555054 
	C770.703003,122.951302 659.947144,69.566765 526.428955,63.553204 
	C493.069336,62.050709 459.837616,65.053032 427.100037,71.687531 
	C324.016418,92.578140 237.867310,142.809113 169.862778,223.051849 
	C102.195442,302.896698 67.414558,395.817444 63.485241,500.260620 
	C62.229946,533.627014 65.117020,566.817078 71.684021,599.545349 
	C86.995155,675.852173 119.094238,744.352844 170.005417,803.358398 
	C255.488541,902.432678 363.995239,955.501343 494.661682,962.424683 
	C535.387512,964.582520 575.781738,960.392151 615.551941,951.006165 
	C670.810120,937.965088 722.106689,915.745605 768.470886,882.984253 
	C867.919312,812.712952 930.241211,717.898376 954.789246,597.568176 
z"/>
<path fill="#000000" opacity="1.000000" stroke="none" 
	d="
M366.646210,596.420776 
	C393.730591,641.791626 432.826141,669.826965 484.454956,679.278381 
	C560.473022,693.194702 637.855713,650.495178 668.166443,578.927124 
	C678.492676,554.545349 683.352661,529.158386 681.396057,502.911804 
	C677.366333,448.855499 652.941040,405.899078 608.743652,374.361145 
	C596.832214,365.861481 592.563171,354.278137 595.309631,340.304321 
	C598.025879,326.484528 607.341064,318.845398 620.807190,316.157898 
	C629.123718,314.498138 636.681213,317.030396 643.473877,321.741425 
	C686.515198,351.592560 717.985168,390.826965 732.862000,441.082611 
	C760.672424,535.029419 739.484314,617.173340 667.927917,684.871033 
	C633.282227,717.648376 591.298950,735.984985 544.044922,742.511169 
	C439.817810,756.905945 337.838562,697.856262 298.677582,600.402161 
	C286.134613,569.188232 279.804901,536.770813 281.887726,503.281677 
	C286.609039,427.368958 319.617706,366.581696 381.908844,322.389252 
	C400.434845,309.246033 425.480347,318.823151 430.795868,340.381714 
	C433.985352,353.317505 428.895874,366.336456 417.374878,374.440643 
	C387.723145,395.298370 366.273163,422.581970 354.356415,456.829315 
	C337.618774,504.931427 341.958221,551.458069 366.646210,596.420776 
z"/>
<path fill="#000000" opacity="1.000000" stroke="none" 
	d="
M542.327881,161.054825 
	C543.893799,165.215286 544.388672,169.119461 544.387390,173.172211 
	C544.352173,286.499969 544.367981,399.827728 544.350403,513.155518 
	C544.347717,530.795166 530.922791,544.309448 513.485413,544.364685 
	C495.688843,544.421082 481.702240,531.044189 481.691254,513.422668 
	C481.620483,399.761627 481.634125,286.100494 481.683960,172.439438 
	C481.690399,157.728867 491.901428,145.090149 505.877228,141.952118 
	C521.233704,138.504089 535.237061,145.722717 542.327881,161.054825 
z"/>
</svg>